<?xml version="1.0" encoding="UTF-8" standalone="no"?>
<!-- Uploaded to: SVG Repo, www.svgrepo.com, Generator: SVG Repo Mixer Tools -->

<svg
   width="700.01318"
   height="700"
   viewBox="0 0 28.000527 28"
   version="1.1"
   id="svg4"
   sodipodi:docname="nuget.svg"
   inkscape:version="1.3.2 (091e20e, 2023-11-25)"
   xmlns:inkscape="http://www.inkscape.org/namespaces/inkscape"
   xmlns:sodipodi="http://sodipodi.sourceforge.net/DTD/sodipodi-0.dtd"
   xmlns="http://www.w3.org/2000/svg"
   xmlns:svg="http://www.w3.org/2000/svg"
   xmlns:rdf="http://www.w3.org/1999/02/22-rdf-syntax-ns#"
   xmlns:cc="http://creativecommons.org/ns#"
   xmlns:dc="http://purl.org/dc/elements/1.1/">
  <defs
     id="defs4" />
  <sodipodi:namedview
     id="namedview4"
     pagecolor="#ffffff"
     bordercolor="#000000"
     borderopacity="0.25"
     inkscape:showpageshadow="2"
     inkscape:pageopacity="0.0"
     inkscape:pagecheckerboard="0"
     inkscape:deskcolor="#d1d1d1"
     showguides="false"
     inkscape:zoom="0.655"
     inkscape:cx="157.25191"
     inkscape:cy="165.64885"
     inkscape:window-width="1392"
     inkscape:window-height="1212"
     inkscape:window-x="1323"
     inkscape:window-y="132"
     inkscape:window-maximized="0"
     inkscape:current-layer="svg4" />
  <title
     id="title1">file_type_nuget</title>
  <path
     d="m 21.376067,28 h -9.065 A 6.721,6.721 0 0 1 5.6880674,21.2 V 12.133 A 6.722,6.722 0 0 1 12.311067,5.3330001 h 9.065 a 6.722,6.722 0 0 1 6.624,6.7999999 V 21.2 a 6.722,6.722 0 0 1 -6.624,6.8 z"
     style="fill:#004880"
     id="path1" />
  <path
     d="m 25.331067,20.813 a 4.691,4.691 0 1 1 -4.69,-4.782 4.726,4.726 0 0 1 4.69,4.782 z"
     style="fill:#ffffff"
     id="path2" />
  <path
     d="M 11.353067,8.7330001 A 2.987,2.987 0 1 1 8.4000674,11.716 2.965,2.965 0 0 1 11.357067,8.7330001 Z"
     style="fill:#ffffff"
     id="path3" />
  <path
     d="M 6.7386475e-5,2.4440001 A 2.407,2.407 0 1 0 2.4060674,1.0637457e-7 2.426,2.426 0 0 0 6.7386475e-5,2.4440001"
     style="fill:#004880"
     id="path4" />
  <metadata
     id="metadata4">
    <rdf:RDF>
      <cc:Work
         rdf:about="">
        <dc:title>file_type_nuget</dc:title>
      </cc:Work>
    </rdf:RDF>
  </metadata>
</svg>
